<?xml version="1.0" encoding="utf-8"?>
<!-- Generator: Adobe Illustrator 19.1.0, SVG Export Plug-In . SVG Version: 6.00 Build 0)  -->
<svg version="1.1" id="Layer_1" xmlns="http://www.w3.org/2000/svg" xmlns:xlink="http://www.w3.org/1999/xlink" x="0px" y="0px"
	 viewBox="4 -3.8 207.8 207.8" style="enable-background:new 4 -3.8 207.8 207.8;" xml:space="preserve">
<style type="text/css">
	.st0{fill:#0E5258;}
	.st1{fill:#FFFFFF;}
</style>
<rect x="4" y="-3.8" class="st0" width="207.8" height="207.8"/>
<g>
	<g>
		<g>
			<path class="st1" d="M107.2,112.5L107.2,112.5c-0.2,0-0.4,0-0.6,0s-0.4,0-0.6,0l0,0c-13.4,0.1-25,2.9-28,3.5l0,0l5.2,26.3
				c0,0,8.7-3.7,23.4-3.8c14.7,0.1,23.4,3.8,23.4,3.8l5.2-26.3l0,0C132.2,115.4,120.6,112.6,107.2,112.5z"/>
		</g>
	</g>
	<g>
		<g>
			<path class="st1" d="M137.3,67.2c-3.9,0-7.5,0.9-10.8,2.5c-3.9-6.6-10.9-11.1-19-11.8v-0.1c-0.3,0-0.6,0.1-0.9,0.1
				s-0.6-0.1-0.9-0.1v0.1c-8.1,0.7-15,5.2-19,11.8c-3.2-1.6-6.9-2.5-10.7-2.5c-13.5,0-24.4,10.9-24.4,24.4S62.5,116,76,116
				c0.5,0,1,0,1.4-0.1c-0.5-0.4-0.5-1.1,0-1.5c0.6-0.5,15.6-3.1,29.2-3.9c13.5,0.7,28.6,3.4,29.2,3.9c0.5,0.4,0.5,1.2,0,1.5
				c0.5,0,1,0.1,1.5,0.1c13.5,0,24.4-10.9,24.4-24.4C161.6,78.1,150.7,67.2,137.3,67.2z"/>
		</g>
	</g>
</g>
</svg>
