<?xml version="1.0" encoding="utf-8"?>
<!-- Generator: Adobe Illustrator 19.1.0, SVG Export Plug-In . SVG Version: 6.00 Build 0)  -->
<svg version="1.1" id="Layer_1" xmlns="http://www.w3.org/2000/svg" xmlns:xlink="http://www.w3.org/1999/xlink" x="0px" y="0px"
	 viewBox="0 0 207.8 207.8" enable-background="new 0 0 207.8 207.8" xml:space="preserve">
<circle fill="#0E5258" cx="103.9" cy="103.9" r="103.9"/>
<g>
	<g>
		<g>
			<path fill="#FFFFFF" d="M103.2,116.3L103.2,116.3c-0.2,0-0.4,0-0.6,0c-0.2,0-0.4,0-0.6,0v0c-13.4,0.1-25,2.9-28,3.5v0l5.2,26.3
				c0,0,8.7-3.7,23.4-3.8c14.7,0.1,23.4,3.8,23.4,3.8l5.2-26.3l0,0C128.2,119.2,116.6,116.4,103.2,116.3z"/>
		</g>
	</g>
	<g>
		<g>
			<path fill="#FFFFFF" d="M133.3,71c-3.9,0-7.5,0.9-10.8,2.5c-3.9-6.6-10.9-11.1-19-11.8v-0.1c-0.3,0-0.6,0.1-0.9,0.1
				c-0.3,0-0.6-0.1-0.9-0.1v0.1c-8.1,0.7-15,5.2-19,11.8C79.5,71.9,75.8,71,72,71c-13.5,0-24.4,10.9-24.4,24.4
				c0,13.5,10.9,24.4,24.4,24.4c0.5,0,1,0,1.4-0.1c-0.5-0.4-0.5-1.1,0-1.5c0.6-0.5,15.6-3.1,29.2-3.9c13.5,0.7,28.6,3.4,29.2,3.9
				c0.5,0.4,0.5,1.2,0,1.5c0.5,0,1,0.1,1.5,0.1c13.5,0,24.4-10.9,24.4-24.4C157.6,81.9,146.7,71,133.3,71z"/>
		</g>
	</g>
</g>
</svg>
